<svg width="382" height="382" viewBox="0 0 382 382" fill="none" xmlns="http://www.w3.org/2000/svg">
<path d="M135.167 62.9834C166.915 34.4344 215.085 34.4344 246.833 62.9834L291.481 103.134C304.62 114.949 313.672 130.628 317.335 147.914L329.781 206.655C338.632 248.424 314.547 290.14 273.949 303.36L216.854 321.952C200.052 327.423 181.948 327.423 165.146 321.952L108.051 303.36C67.453 290.14 43.3684 248.424 52.2188 206.655L64.665 147.914C68.3278 130.628 77.3797 114.949 90.5186 103.134L135.167 62.9834Z" stroke="black" style="stroke:black;stroke-opacity:1;" stroke-width="19"/>
<path d="M161.555 146C174.642 123.333 207.358 123.333 220.445 146L244.694 188C257.78 210.667 241.422 239 215.249 239H166.751C140.578 239 124.22 210.667 137.306 188L161.555 146Z" fill="black" style="fill:black;fill-opacity:1;"/>
</svg>
